<?xml version="1.0" encoding="utf-8"?>
<!-- Generator: Adobe Illustrator 23.0.1, SVG Export Plug-In . SVG Version: 6.00 Build 0)  -->
<svg version="1.1" id="Layer_1" xmlns="http://www.w3.org/2000/svg" xmlns:xlink="http://www.w3.org/1999/xlink" x="0px" y="0px"
	 viewBox="0 0 21 20" style="enable-background:new 0 0 21 20;" xml:space="preserve" width="21" height="20">
<style type="text/css">
	.st0{filter:url(#Adobe_OpacityMaskFilter);}
	.st1{fill-rule:evenodd;clip-rule:evenodd;fill:#FFFFFF;}
	.st2{mask:url(#b_1_);fill-rule:evenodd;clip-rule:evenodd;fill:#0169B0;}
	.st3{filter:url(#Adobe_OpacityMaskFilter_1_);}
	.st4{mask:url(#d_1_);fill-rule:evenodd;clip-rule:evenodd;fill:#0169B0;}
</style>
<g transform="translate(0 -.104)">
	<g transform="translate(0 .295)">
		<defs>
			<filter id="Adobe_OpacityMaskFilter" filterUnits="userSpaceOnUse" x="0" y="0.137" width="21" height="19.284">
				<feColorMatrix  type="matrix" values="1 0 0 0 0  0 1 0 0 0  0 0 1 0 0  0 0 0 1 0"/>
			</filter>
		</defs>
		<mask maskUnits="userSpaceOnUse" x="0" y="0.137" width="21" height="19.284" id="b_1_">
			<g class="st0">
				<path id="a_1_" class="st1" d="M0,0.137h21v19.284H0V0.137z"/>
			</g>
		</mask>
		<path class="st2" d="M19.393,12.215c0,1.113-0.972,2.013-2.171,2.013H5.873l-3.948,3.649c-0.039,0.036-0.091,0.056-0.144,0.056
			c-0.106,0-0.207-0.076-0.207-0.19l0.008-5.458c0,0-0.008-0.046-0.008-0.07V3.64c0-1.112,0.972-2.014,2.171-2.014h13.477
			c1.199,0,2.171,0.902,2.171,2.014v8.576V12.215z M3.62,0.137C1.624,0.137,0,1.642,0,3.493v14.438c0,0.822,0.72,1.49,1.607,1.49
			c0.42,0.003,0.826-0.153,1.136-0.438l3.599-3.354H17.38c1.996,0,3.62-1.506,3.62-3.356v-8.78c0-1.85-1.624-3.356-3.62-3.356
			C17.38,0.137,3.62,0.137,3.62,0.137z"/>
	</g>
	<defs>
		<filter id="Adobe_OpacityMaskFilter_1_" filterUnits="userSpaceOnUse" x="4.563" y="4.416" width="11.837" height="7.694">
			<feColorMatrix  type="matrix" values="1 0 0 0 0  0 1 0 0 0  0 0 1 0 0  0 0 0 1 0"/>
		</filter>
	</defs>
	<mask maskUnits="userSpaceOnUse" x="4.563" y="4.416" width="11.837" height="7.694" id="d_1_">
		<g class="st3">
			<path id="c_1_" class="st1" d="M0,19.754h21V0.406H0V19.754z"/>
		</g>
	</mask>
	<path class="st4" d="M4.563,5.916H16.4v-1.5H4.563V5.916z M4.563,9.013H16.4v-1.5H4.563V9.013z M4.563,12.11H16.4v-1.5H4.563V12.11
		z"/>
</g>
</svg>
